<?xml version="1.0" encoding="utf-8"?>
<!-- Generator: Adobe Illustrator 18.1.1, SVG Export Plug-In . SVG Version: 6.00 Build 0)  -->
<!DOCTYPE svg PUBLIC "-//W3C//DTD SVG 1.1//EN" "http://www.w3.org/Graphics/SVG/1.1/DTD/svg11.dtd">
<svg version="1.1" id="Layer_1" xmlns="http://www.w3.org/2000/svg" xmlns:xlink="http://www.w3.org/1999/xlink" x="0px" y="0px"
	 viewBox="0 0 311.5 303.3" enable-background="new 0 0 311.5 303.3" xml:space="preserve">
<g id="map">
	<polygon id="background" fill="#CECCC7" points="0,161.1 68.9,121.3 132,128.3 191.4,93.9 311.5,204.9 240.2,250 171.3,250 
		89.3,303.3 	"/>
	<g id="buildings">
		<polygon fill="#989693" points="4.9,161.1 8.6,166.8 50,142.6 44.8,137.1 		"/>
		<polygon fill="#989693" points="36.5,160.1 40.7,166.8 28.5,173.6 36.7,186.2 26.2,193.4 14,173.7 		"/>
		<polygon fill="#989693" points="40.7,192.6 25.3,201.4 38.6,222.5 54,213.1 		"/>
		<path fill="#989693" d="M48.3,135.2l8.8-5.3l13.5,17.2c0,0-22.3,37,9.7,47.2L70,230.1l-11.3-1l8.7-25.5c0,0-33.2-16.8-9-52.7
			L48.3,135.2z"/>
		<polygon fill="#989693" points="52.3,236.9 67.5,238.2 61,258.2 50.7,241.7 		"/>
		<polygon fill="#989693" points="124,249.9 118,241.6 90.5,259.2 80.8,289.6 89.3,303.3 101.3,264.4 		"/>
		<polygon fill="#989693" points="109,270.6 118.7,284.2 171.3,250 161,236.9 		"/>
		<polygon fill="#989693" points="131.3,245.2 124.8,236.9 148.8,221.3 155.7,230.1 		"/>
		<polygon fill="#989693" points="105.8,215.4 111.3,223.7 136.8,207.5 130.5,198.6 124.8,201.6 126.2,203.2 		"/>
		<polygon fill="#84827E" points="175.6,208.7 169.9,201.5 151.4,201.5 150.2,198.6 130.5,198.6 136.8,207.5 155.7,206.1 
			157.5,208.7 		"/>
		<polygon fill="#84827E" points="174,202.4 179.8,208.7 205.5,210.1 199.2,203.6 		"/>
		<polygon fill="#84827E" points="136.8,173.1 142.4,173.1 145.5,177.4 150,177.4 146.7,173.1 151.7,173.1 160.1,183.9 145.9,183.9 
					"/>
		<polygon fill="#84827E" points="154.3,174.3 163.3,183.9 176.7,185 168.1,174.3 		"/>
		<polygon fill="#84827E" points="171.3,176.1 174.9,176.1 195.1,198.6 190.7,198.6 		"/>
		<polygon fill="#908E8B" points="178,173.7 174.9,176.1 195.1,198.6 198.5,196.2 		"/>
		<polygon fill="#757370" points="129.7,133.8 120.6,133.8 114.7,126.4 124,127.4 		"/>
		<polygon fill="#757370" points="122.2,137.5 141.5,159.4 152.3,160.6 147.2,154.4 154.3,155 159.2,161.2 161.2,161.2 141.7,138.8 
					"/>
		<polygon fill="#ACAAA8" points="147.7,130.1 138.9,134.9 132,128.3 141.7,122.6 		"/>
		<polygon fill="#ACAAA8" points="150.8,133.8 141.7,138.8 161.2,161.2 171.3,155.6 		"/>
		<polygon fill="#ACAAA8" points="212.6,161.2 207.4,155.3 189.8,166.3 222,200.5 229.9,195 203.2,166.6 		"/>
		<polygon fill="#969491" points="234.4,150.6 227.9,144.3 238.6,137.5 244.9,143.4 		"/>
		<polygon fill="#ACAAA8" points="242.7,150.6 260.8,166.9 244.9,177.4 250.7,182.7 272.8,169.1 248.3,146.5 		"/>
		<polygon fill="#ACAAA8" points="192.9,107.6 183.2,98.6 191.4,93.9 200.9,102.7 		"/>
		<polygon fill="#ACAAA8" points="201.5,110.7 206.3,107.6 224.1,124.1 219.2,127.2 		"/>
		<polygon fill="#ACAAA8" points="279.8,186.1 262,197.7 277,211.8 302.1,196.3 296.6,191.1 289,195.9 		"/>
	</g>
	<g id="grass">
		<g>
			<path fill="#9AD166" d="M97.3,157.6c0,0-7.2,2.7-4.5,11.7c0,0,4.7,5.3,13,0c0,0,6.8-0.3,3.7-4.6
				C106.3,160.2,102.2,158.3,97.3,157.6z"/>
			<path fill="#5AB00D" d="M106.9,169.1c1.8-0.3,5-1.3,2.6-4.5c-3.2-4.4-7.3-6.3-12.2-7c0,0,0,0-0.1,0L106.9,169.1z"/>
		</g>
		<polygon fill="#54A70B" points="164.8,222.6 187.3,250 240.2,250 217.6,223.1 		"/>
		<polygon fill="#67BB1B" points="220.8,221.3 217.6,223.1 240.2,250 244.6,247.2 		"/>
		<path fill="#58AB0A" d="M94.2,142.7c0,0,18,1.7,30.6,15.7l14,1l-28.4-33.5l-31.8-3.5L94.2,142.7z"/>
		<path fill="#58AB0A" d="M154.3,196.5l-26.7-1.2l-5.3-7c0,0,14.6,0.1,16.6-10.5L154.3,196.5z"/>
		<polygon fill="#94D160" points="103.8,210.1 127.6,195.4 122.2,188.4 108.7,194.4 		"/>
		<polygon fill="#6DBE24" points="162.2,139.8 144.7,120.9 179.5,100.7 213.7,133.8 176.7,155.3 		"/>
		<path fill="#6DBE24" d="M240.2,208.7l-5.1,4.5l24,24.9l9.1-5.8C268.2,232.3,263.5,232.9,240.2,208.7z"/>
	</g>
	<path id="river" fill="#37B3D4" d="M207.2,137.5c0,0-35.8-6.4-37.3-31.2l-9.9,5.7c0,0,0.6,24.3,38.4,32c0,0,28.2,12.1,29.4,27.6
		c1.2,15.4,13.4,34.6,13.4,34.6s21.1,24,28.5,25.1l10.7-6.7c0,0-35.7-20.6-40.2-51.4C235.7,142.3,201,136.2,207.2,137.5z"/>
	<g id="road">
		<path fill="#F3F3F3" d="M90.3,243.4l14-52.5c0,0,6.5-0.3,14.5-5.8c0,0,21,1,13.8-14.5l39.3,2.5l-8.5-9.8l-38.7-3.2
			c0,0-14.2-13.5-32-15.5L74.7,122l-5.8-0.6l-8.7,5l17.5,22.7c0,0-26.3,29.8,8.2,41.8l-21.5,72.6l14.3,22.7l8.6-30.8l58.8-37l-5-6.5
			L90.3,243.4z M95.2,154.7c13.2,1.8,19.5,12.1,19.5,12.1c1,5.1-5.8,5.4-5.8,5.4c-12.3,6.8-19.8-0.8-19.8-0.8
			C84,161.6,95.2,154.7,95.2,154.7z"/>
		<polygon fill="#EEEEEE" points="176.7,155.3 163.5,163.2 172,173.1 179.1,169.1 215.5,208.7 208.9,214.2 214.3,220.2 221.7,215.7 
			248.6,244.7 255.3,240.4 228.9,211.8 282.9,178.5 276.3,172.4 223.2,206.2 185.5,165.5 235.7,134.9 226.6,126.4 		"/>
	</g>
</g>
<g id="pin">
	<path fill="#A00000" stroke="#A00000" stroke-width="3.8" stroke-miterlimit="10" d="M264.5,1.7H46.9c-6.8,0-12.3,5.5-12.3,12.3
		v45.9c0,6.8,5.5,12.3,12.3,12.3h89c0.4,0,0.8,0.3,0.9,0.7l18.9,107.8l18.9-107.8c0.1-0.4,0.4-0.7,0.9-0.7h89
		c6.8,0,12.3-5.5,12.3-12.3V14C276.8,7.2,271.3,1.7,264.5,1.7z"/>
	<path fill="#FFFFFF" stroke="#A00000" stroke-width="3.61" stroke-miterlimit="10" d="M254.4,65.9H57c-6,0-10.8-4.9-10.8-10.8V17.9
		c0-6,4.9-10.8,10.8-10.8h197.4c6,0,10.8,4.9,10.8,10.8V55C265.3,61,260.4,65.9,254.4,65.9z"/>
</g>
</svg>
